<svg width="100" height="26" viewBox="0 0 100 26" fill="none" xmlns="http://www.w3.org/2000/svg">
<path d="M20.4575 18.2676C21.4942 18.2676 22.3345 17.4273 22.3345 16.3906C22.3345 15.354 21.4942 14.5137 20.4575 14.5137C19.4209 14.5137 18.5806 15.354 18.5806 16.3906C18.5806 17.4273 19.4209 18.2676 20.4575 18.2676Z" fill="#589BFF"/>
<path d="M19.7969 16.3154C20.056 16.3154 20.2661 16.1054 20.2661 15.8462C20.2661 15.587 20.056 15.377 19.7969 15.377C19.5377 15.377 19.3276 15.587 19.3276 15.8462C19.3276 16.1054 19.5377 16.3154 19.7969 16.3154Z" fill="white"/>
<path d="M10.8482 18.2676C11.8848 18.2676 12.7251 17.4273 12.7251 16.3906C12.7251 15.354 11.8848 14.5137 10.8482 14.5137C9.81154 14.5137 8.97119 15.354 8.97119 16.3906C8.97119 17.4273 9.81154 18.2676 10.8482 18.2676Z" fill="#589BFF"/>
<path d="M10.1875 16.3154C10.4467 16.3154 10.6567 16.1054 10.6567 15.8462C10.6567 15.587 10.4467 15.377 10.1875 15.377C9.92835 15.377 9.71826 15.587 9.71826 15.8462C9.71826 16.1054 9.92835 16.3154 10.1875 16.3154Z" fill="white"/>
<path d="M15.6422 18.3008C14.8602 18.3008 14.2095 18.8607 14.0812 19.599C14.0562 19.7398 14.1657 19.8649 14.3002 19.8649H16.9843C17.1188 19.8649 17.2283 19.7367 17.2032 19.599C17.075 18.8607 16.4243 18.3008 15.6422 18.3008Z" fill="#589BFF"/>
<path d="M31.2828 15.8416C31.2828 7.09182 24.2786 0 15.6414 0C7.00423 0 0 7.09182 0 15.8416C0 19.2671 1.07613 22.4329 2.89992 25.0263C2.88428 24.6978 2.87177 24.3662 2.87177 24.0315C2.87177 15.3818 8.56212 8.36503 15.5914 8.33375C15.2754 7.5767 15.3943 6.33165 15.7697 5.33372C16.2921 3.95102 17.1524 3.45362 18.094 3.8165C19.0356 4.17939 19.3484 5.13351 18.826 6.51622C18.7603 6.6914 18.6821 6.86658 18.5977 7.03864C19.3829 6.60381 19.9866 6.7133 20.2963 7.26701C20.6091 7.82697 20.3839 8.41821 19.5799 8.87807C19.5017 8.92187 19.4204 8.96253 19.3391 9.0032C24.5883 10.9521 28.4111 16.9428 28.4111 24.0315C28.4111 24.3662 28.3986 24.6978 28.3829 25.0263C30.2067 22.4361 31.2828 19.2671 31.2828 15.8416Z" fill="#589BFF"/>
<path d="M97.7709 7.76681C97.1085 7.76681 96.5638 7.57544 96.1369 7.19268C95.7247 6.7952 95.5186 6.3094 95.5186 5.73527C95.5186 5.14641 95.7247 4.66061 96.1369 4.27786C96.5638 3.88038 97.1085 3.68164 97.7709 3.68164C98.4187 3.68164 98.9486 3.88038 99.3608 4.27786C99.7877 4.66061 100.001 5.14641 100.001 5.73527C100.001 6.3094 99.7877 6.7952 99.3608 7.19268C98.9486 7.57544 98.4187 7.76681 97.7709 7.76681ZM99.6479 9.04757V21.3693H95.8719V9.04757H99.6479Z" fill="#589BFF"/>
<path d="M90.2018 11.1012C90.6434 10.424 91.1955 9.89401 91.858 9.51125C92.5204 9.11378 93.2565 8.91504 94.0662 8.91504V12.9119H93.0283C92.0861 12.9119 91.3795 13.118 90.9084 13.5302C90.4373 13.9277 90.2018 14.6343 90.2018 15.6501V21.3693H86.4258V9.04753H90.2018V11.1012Z" fill="#589BFF"/>
<path d="M70.6885 15.1866C70.6885 13.9205 70.924 12.8091 71.3951 11.8522C71.8809 10.8953 72.536 10.1592 73.3604 9.64397C74.1848 9.12872 75.1049 8.87109 76.1207 8.87109C76.9892 8.87109 77.7474 9.04775 78.3951 9.40106C79.0576 9.75438 79.5654 10.2181 79.9188 10.7922V9.04775H83.6948V21.3695H79.9188V19.625C79.5507 20.1992 79.0355 20.6629 78.373 21.0162C77.7253 21.3695 76.9671 21.5462 76.0986 21.5462C75.0975 21.5462 74.1848 21.2885 73.3604 20.7733C72.536 20.2433 71.8809 19.4999 71.3951 18.543C70.924 17.5714 70.6885 16.4526 70.6885 15.1866ZM79.9188 15.2086C79.9188 14.2665 79.6538 13.523 79.1238 12.9783C78.6086 12.4337 77.9755 12.1613 77.2248 12.1613C76.474 12.1613 75.8336 12.4337 75.3036 12.9783C74.7884 13.5083 74.5307 14.2444 74.5307 15.1866C74.5307 16.1287 74.7884 16.8795 75.3036 17.4389C75.8336 17.9836 76.474 18.2559 77.2248 18.2559C77.9755 18.2559 78.6086 17.9836 79.1238 17.4389C79.6538 16.8942 79.9188 16.1508 79.9188 15.2086Z" fill="#589BFF"/>
<path d="M66.8261 7.76681C66.1636 7.76681 65.6189 7.57544 65.192 7.19268C64.7798 6.7952 64.5737 6.3094 64.5737 5.73527C64.5737 5.14641 64.7798 4.66061 65.192 4.27786C65.6189 3.88038 66.1636 3.68164 66.8261 3.68164C67.4738 3.68164 68.0038 3.88038 68.416 4.27786C68.8429 4.66061 69.0564 5.14641 69.0564 5.73527C69.0564 6.3094 68.8429 6.7952 68.416 7.19268C68.0038 7.57544 67.4738 7.76681 66.8261 7.76681ZM68.7031 9.04757V21.3693H64.927V9.04757H68.7031Z" fill="#589BFF"/>
<path d="M59.2565 11.1012C59.6981 10.424 60.2502 9.89401 60.9126 9.51125C61.5751 9.11378 62.3112 8.91504 63.1208 8.91504V12.9119H62.083C61.1408 12.9119 60.4342 13.118 59.9631 13.5302C59.492 13.9277 59.2565 14.6343 59.2565 15.6501V21.3693H55.4805V9.04753H59.2565V11.1012Z" fill="#589BFF"/>
<path d="M48.8502 18.6316H43.0647L42.1373 21.3697H38.1846L43.7934 5.86816H48.1656L53.7745 21.3697H49.7776L48.8502 18.6316ZM47.8786 15.7167L45.9574 10.0417L44.0584 15.7167H47.8786Z" fill="#589BFF"/>
</svg>
